# xmcd
#
# Track frame offsets:
# 150
# 13173
# 30036
# 47635
# 63123
# 75701
#
# Disc length: 1356 seconds
#
# Revision: 1
# Processed by: cddbd v1.5.2PL0 Copyright (c) Steve Scherf et al.
# Submitted via: Easy CD Ripper v2.27
#
DISCID=38054a06
DTITLE=John Mayer - The Village Sessions
DYEAR=2006
DGENRE=Acoustic
TTITLE0=Waiting on the World to Change (Ben Harper version)
TTITLE1=Belief (acoustic version)
TTITLE2=Slow Dancing in a Burning Room (acoustic version)
TTITLE3=Good Love is on the Way (acoustic version)
TTITLE4=I'm Gonna Find Another You (acoustic version)
TTITLE5=In Repair (acoustic version)
EXTD=Import
EXTT0=
EXTT1=
EXTT2=
EXTT3=
EXTT4=
EXTT5=
PLAYORDER=
